v 5 4.5 0.0
v 5 5 0.0
v 4.5 5 0.0
v 4.5 4.5 0.0
v 4 5 0.0
v 4 4.5 0.0
v 3.5 5 0.0
v 3.5 4.5 0.0
v 3 5 0.0
v 3 4.5 0.0
v 2.5 5 0.0
v 2.5 4.5 0.0
v 2 5 0.0
v 2 4.5 0.0
v 1.5 5 0.0
v 1.5 4.5 0.0
v 1 5 0.0
v 1 4.5 0.0
v 0.5 5 0.0
v 0.5 4.5 0.0
v 0 5 0.0
v 0 4.5 0.0
v 5 4 0.0
v 4.5 4 0.0
v 4 4 0.0
v 3.5 4 0.0
v 3 4 0.0
v 2.5 4 0.0
v 2 4 0.0
v 1.5 4 0.0
v 1 4 0.0
v 0.5 4 0.0
v 0 4 0.0
v 5 3.5 0.0
v 4.5 3.5 0.0
v 4 3.5 0.0
v 3.5 3.5 0.0
v 3 3.5 0.0
v 2.5 3.5 0.0
v 2 3.5 0.0
v 1.5 3.5 0.0
v 1 3.5 0.0
v 0.5 3.5 0.0
v 0 3.5 0.0
v 5 3 0.0
v 4.5 3 0.0
v 4 3 0.0
v 3.5 3 0.0
v 3 3 0.0
v 2.5 3 0.0
v 2 3 0.0
v 1.5 3 0.0
v 1 3 0.0
v 0.5 3 0.0
v 0 3 0.0
v 5 2.5 0.0
v 4.5 2.5 0.0
v 4 2.5 0.0
v 3.5 2.5 0.0
v 3 2.5 0.0
v 2.5 2.5 0.0
v 2 2.5 0.0
v 1.5 2.5 0.0
v 1 2.5 0.0
v 0.5 2.5 0.0
v 0 2.5 0.0
v 5 2 0.0
v 4.5 2 0.0
v 4 2 0.0
v 3.5 2 0.0
v 3 2 0.0
v 2.5 2 0.0
v 2 2 0.0
v 1.5 2 0.0
v 1 2 0.0
v 0.5 2 0.0
v 0 2 0.0
v 5 1.5 0.0
v 4.5 1.5 0.0
v 4 1.5 0.0
v 3.5 1.5 0.0
v 3 1.5 0.0
v 2.5 1.5 0.0
v 2 1.5 0.0
v 1.5 1.5 0.0
v 1 1.5 0.0
v 0.5 1.5 0.0
v 0 1.5 0.0
v 5 1 0.0
v 4.5 1 0.0
v 4 1 0.0
v 3.5 1 0.0
v 3 1 0.0
v 2.5 1 0.0
v 2 1 0.0
v 1.5 1 0.0
v 1 1 0.0
v 0.5 1 0.0
v 0 1 0.0
v 5 0.5 0.0
v 4.5 0.5 0.0
v 4 0.5 0.0
v 3.5 0.5 0.0
v 3 0.5 0.0
v 2.5 0.5 0.0
v 2 0.5 0.0
v 1.5 0.5 0.0
v 1 0.5 0.0
v 0.5 0.5 0.0
v 0 0.5 0.0
v 5 0 0.0
v 4.5 0 0.0
v 4 0 0.0
v 3.5 0 0.0
v 3 0 0.0
v 2.5 0 0.0
v 2 0 0.0
v 1.5 0 0.0
v 1 0 0.0
v 0.5 0 0.0
v 0 0 0.0
vn 0.0 0.0 1.0
f 1//1 2//1 3//1
f 1//2 3//2 4//2
f 4//3 3//3 5//3
f 6//4 5//4 7//4
f 5//5 6//5 4//5
f 8//6 7//6 9//6
f 7//7 8//7 6//7
f 10//8 9//8 11//8
f 9//9 10//9 8//9
f 12//10 11//10 13//10
f 11//11 12//11 10//11
f 14//12 13//12 15//12
f 13//13 14//13 12//13
f 16//14 15//14 17//14
f 15//15 16//15 14//15
f 18//16 17//16 19//16
f 17//17 18//17 16//17
f 20//18 19//18 21//18
f 19//19 20//19 18//19
f 21//20 22//20 20//20
f 23//21 1//21 4//21
f 24//22 4//22 6//22
f 4//23 24//23 23//23
f 25//24 6//24 8//24
f 6//25 25//25 24//25
f 26//26 8//26 10//26
f 8//27 26//27 25//27
f 27//28 10//28 12//28
f 10//29 27//29 26//29
f 28//30 12//30 14//30
f 12//31 28//31 27//31
f 29//32 14//32 16//32
f 14//33 29//33 28//33
f 30//34 16//34 18//34
f 16//35 30//35 29//35
f 31//36 18//36 20//36
f 18//37 31//37 30//37
f 32//38 20//38 22//38
f 20//39 32//39 31//39
f 32//40 22//40 33//40
f 34//41 23//41 24//41
f 35//42 24//42 25//42
f 24//43 35//43 34//43
f 36//44 25//44 26//44
f 25//45 36//45 35//45
f 37//46 26//46 27//46
f 26//47 37//47 36//47
f 38//48 27//48 28//48
f 27//49 38//49 37//49
f 39//50 28//50 29//50
f 28//51 39//51 38//51
f 40//52 29//52 30//52
f 29//53 40//53 39//53
f 41//54 30//54 31//54
f 30//55 41//55 40//55
f 42//56 31//56 32//56
f 31//57 42//57 41//57
f 43//58 32//58 33//58
f 32//59 43//59 42//59
f 43//60 33//60 44//60
f 45//61 34//61 35//61
f 46//62 35//62 36//62
f 35//63 46//63 45//63
f 47//64 36//64 37//64
f 36//65 47//65 46//65
f 48//66 37//66 38//66
f 37//67 48//67 47//67
f 49//68 38//68 39//68
f 38//69 49//69 48//69
f 50//70 39//70 40//70
f 39//71 50//71 49//71
f 51//72 40//72 41//72
f 40//73 51//73 50//73
f 52//74 41//74 42//74
f 41//75 52//75 51//75
f 53//76 42//76 43//76
f 42//77 53//77 52//77
f 54//78 43//78 44//78
f 43//79 54//79 53//79
f 54//80 44//80 55//80
f 56//81 45//81 46//81
f 57//82 46//82 47//82
f 46//83 57//83 56//83
f 58//84 47//84 48//84
f 47//85 58//85 57//85
f 59//86 48//86 49//86
f 48//87 59//87 58//87
f 60//88 49//88 50//88
f 49//89 60//89 59//89
f 61//90 50//90 51//90
f 50//91 61//91 60//91
f 62//92 51//92 52//92
f 51//93 62//93 61//93
f 63//94 52//94 53//94
f 52//95 63//95 62//95
f 64//96 53//96 54//96
f 53//97 64//97 63//97
f 65//98 54//98 55//98
f 54//99 65//99 64//99
f 65//100 55//100 66//100
f 67//101 56//101 57//101
f 68//102 57//102 58//102
f 57//103 68//103 67//103
f 69//104 58//104 59//104
f 58//105 69//105 68//105
f 70//106 59//106 60//106
f 59//107 70//107 69//107
f 71//108 60//108 61//108
f 60//109 71//109 70//109
f 72//110 61//110 62//110
f 61//111 72//111 71//111
f 73//112 62//112 63//112
f 62//113 73//113 72//113
f 74//114 63//114 64//114
f 63//115 74//115 73//115
f 75//116 64//116 65//116
f 64//117 75//117 74//117
f 76//118 65//118 66//118
f 65//119 76//119 75//119
f 76//120 66//120 77//120
f 78//121 67//121 68//121
f 79//122 68//122 69//122
f 68//123 79//123 78//123
f 80//124 69//124 70//124
f 69//125 80//125 79//125
f 81//126 70//126 71//126
f 70//127 81//127 80//127
f 82//128 71//128 72//128
f 71//129 82//129 81//129
f 83//130 72//130 73//130
f 72//131 83//131 82//131
f 84//132 73//132 74//132
f 73//133 84//133 83//133
f 85//134 74//134 75//134
f 74//135 85//135 84//135
f 86//136 75//136 76//136
f 75//137 86//137 85//137
f 87//138 76//138 77//138
f 76//139 87//139 86//139
f 87//140 77//140 88//140
f 89//141 78//141 79//141
f 90//142 79//142 80//142
f 79//143 90//143 89//143
f 91//144 80//144 81//144
f 80//145 91//145 90//145
f 92//146 81//146 82//146
f 81//147 92//147 91//147
f 93//148 82//148 83//148
f 82//149 93//149 92//149
f 94//150 83//150 84//150
f 83//151 94//151 93//151
f 95//152 84//152 85//152
f 84//153 95//153 94//153
f 96//154 85//154 86//154
f 85//155 96//155 95//155
f 97//156 86//156 87//156
f 86//157 97//157 96//157
f 98//158 87//158 88//158
f 87//159 98//159 97//159
f 98//160 88//160 99//160
f 100//161 89//161 90//161
f 101//162 90//162 91//162
f 90//163 101//163 100//163
f 102//164 91//164 92//164
f 91//165 102//165 101//165
f 103//166 92//166 93//166
f 92//167 103//167 102//167
f 104//168 93//168 94//168
f 93//169 104//169 103//169
f 105//170 94//170 95//170
f 94//171 105//171 104//171
f 106//172 95//172 96//172
f 95//173 106//173 105//173
f 107//174 96//174 97//174
f 96//175 107//175 106//175
f 108//176 97//176 98//176
f 97//177 108//177 107//177
f 109//178 98//178 99//178
f 98//179 109//179 108//179
f 109//180 99//180 110//180
f 111//181 100//181 101//181
f 112//182 101//182 102//182
f 101//183 112//183 111//183
f 113//184 102//184 103//184
f 102//185 113//185 112//185
f 114//186 103//186 104//186
f 103//187 114//187 113//187
f 115//188 104//188 105//188
f 104//189 115//189 114//189
f 116//190 105//190 106//190
f 105//191 116//191 115//191
f 117//192 106//192 107//192
f 106//193 117//193 116//193
f 118//194 107//194 108//194
f 107//195 118//195 117//195
f 119//196 108//196 109//196
f 108//197 119//197 118//197
f 120//198 109//198 110//198
f 109//199 120//199 119//199
f 120//200 110//200 121//200
